<svg xmlns="http://www.w3.org/2000/svg" width="104.013" height="62" viewBox="0 0 104.013 62"><defs><style>.a{fill:#474747;}</style></defs><g transform="translate(-68.03 -43.54)"><g transform="translate(82.612 59.645)"><path class="a" d="M118.413,70.02H105.728L92.11,115.608h12.777l1.805-6.035h.037l6.465-21.717,7.5,16.3,5.28-17.646Z" transform="translate(-91.907 -69.867)"/><path class="a" d="M104.87,115.665H91.78l.061-.2,13.649-45.7h12.894L126.01,86.4l-.018.055-5.4,18.039-7.5-16.3-6.385,21.434h-.037Zm-12.679-.307h12.452l1.811-6.035h.031l6.551-22,7.5,16.3,5.145-17.2-7.5-16.344h-12.47Z" transform="translate(-91.78 -69.77)"/></g><g transform="translate(98.422 59.276)"><path class="a" d="M142.194,115.434H119.777l-2.247-4.893,5.679-18.984,7.5,16.3,6.214-20.875h.031l5.225-17.806H155.9Zm-21.827-.921h21.139L154.67,70.091h-11.8L137.644,87.9h-.037l-6.717,22.558-7.5-16.3-4.881,16.314Z" transform="translate(-117.53 -69.17)"/></g><path class="a" d="M81.765,70.17l-5.1,17.087H76.65l-6.465,21.717-.068-.147L68.03,115.82H80.924L94.536,70.17Z" transform="translate(0 -10.28)"/><g transform="translate(81.937 43.54)"><path class="a" d="M104.605,50.5a6.963,6.963,0,1,1-6.963-6.963A6.965,6.965,0,0,1,104.605,50.5Z" transform="translate(-90.68 -43.54)"/></g><g transform="translate(140.255 73.096)"><g transform="translate(0 0)"><path class="a" d="M196.467,103a.317.317,0,0,1-.2-.074l-9.64-8.338c-.571-.491-1.105-1.013-.927-1.51.154-.43.737-.614,2-.639,2.339-.043,29.164-.749,29.434-.755a.307.307,0,0,1,.307.233.31.31,0,0,1-.153.35l-20.679,10.708A.621.621,0,0,1,196.467,103Zm19.347-10.671c-5.489.141-26.07.682-28.1.725-1.283.025-1.431.233-1.437.239,0,.031.049.227.755.835l9.48,8.2Z" transform="translate(-185.663 -91.678)"/></g><g transform="translate(10.749 0.418)"><path class="a" d="M224.174,92.36c-16.264,21.766-16.381,21.649-17.732,23.485-1.406,1.9-1.688,1.2-1.824-.215s-1.449-12.581-1.449-12.581l21-10.689Z" transform="translate(-203.17 -92.36)"/></g></g><g transform="translate(126.033 59.688)"><path class="a" d="M193.954,109.627a7.776,7.776,0,0,1-3.3.731,7.857,7.857,0,0,1-7.1-4.531l-8.074-17.357a7.842,7.842,0,0,1,3.8-10.407l17.161-7.982H174.994L162.77,110.83v.442a4.354,4.354,0,0,0,4.353,4.353h36.845a4.354,4.354,0,0,0,4.353-4.353v-8.326Z" transform="translate(-162.604 -69.933)"/><path class="a" d="M203.852,115.692H167.007a4.514,4.514,0,0,1-4.507-4.507l.006-.485L174.761,69.84h22.257l-17.787,8.27a7.692,7.692,0,0,0-3.727,10.2l8.074,17.357a7.711,7.711,0,0,0,6.969,4.439,7.583,7.583,0,0,0,3.236-.718l14.57-6.778v8.571A4.5,4.5,0,0,1,203.852,115.692Zm-41.039-4.924v.424a4.206,4.206,0,0,0,4.2,4.2h36.845a4.206,4.206,0,0,0,4.2-4.2v-8.086l-14.134,6.576a7.89,7.89,0,0,1-3.365.749,8.02,8.02,0,0,1-7.245-4.617L175.24,88.456a8,8,0,0,1,3.874-10.61l16.528-7.687H175.007Z" transform="translate(-162.5 -69.84)"/></g></g></svg>