<svg xmlns="http://www.w3.org/2000/svg" width="163.98" height="43.239" viewBox="0 0 163.98 43.239"><defs><style>.a{fill:#fff;}</style></defs><g transform="translate(-389 -58)"><path class="a" d="M-97.256,332.269h-7.469a.522.522,0,0,0-.591.589v7.8a.522.522,0,0,0,.591.589h1a.52.52,0,0,0,.589-.589V340.3H-99.3v0h.411v.348a.521.521,0,0,0,.589.589h1.047a.522.522,0,0,0,.591-.589v-7.8A.522.522,0,0,0-97.256,332.269Zm-1.636,1.091v5.9h-4.24v-5.9Z" transform="translate(578.041 -252.521)"/><path class="a" d="M-101.42,332.269h-7.471a.52.52,0,0,0-.589.589v7.8a.52.52,0,0,0,.589.589h1.047a.522.522,0,0,0,.591-.589v-.348h4.238v.348a.521.521,0,0,0,.589.589h1.007a.521.521,0,0,0,.589-.589v-7.8A.521.521,0,0,0-101.42,332.269Zm-1.6,6.991h-4.238v-5.9h4.238Z" transform="translate(572.201 -252.521)"/><path class="a" d="M-107.726,335.871h1.069a.522.522,0,0,0,.591-.589v-.42h0v-5.434H-97.5v5.4h-6.621a.461.461,0,0,0-.524.521.461.461,0,0,0,.524.521h8.281a.521.521,0,0,0,.589-.589V328.9a.522.522,0,0,0-.589-.591h-11.884a.522.522,0,0,0-.591.591v6.378A.522.522,0,0,0-107.726,335.871Z" transform="translate(573.832 -258.069)"/><path class="a" d="M-81.568,343.679h-7.6V329.96H-82.2a.522.522,0,0,0,.591-.589V329.3a.522.522,0,0,0-.591-.591H-98.41A.522.522,0,0,0-99,329.3v.067a.521.521,0,0,0,.589.589h6.969v13.719h-7.6a.521.521,0,0,0-.591.589v.065a.522.522,0,0,0,.591.589h17.474a.522.522,0,0,0,.591-.589v-.065A.521.521,0,0,0-81.568,343.679Z" transform="translate(586.01 -257.508)"/><path class="a" d="M-85.923,334.154l.283-.37a.531.531,0,0,0-.065-.81c-.831-.742-1.857-1.638-3.147-2.621a.526.526,0,0,0-.829.086l-.219.264a.526.526,0,0,0,.11.829c1.026.807,2.032,1.727,3.036,2.666A.489.489,0,0,0-85.923,334.154Z" transform="translate(599.443 -255.434)"/><path class="a" d="M-89.387,329.527c.872.723,1.768,1.509,2.664,2.361a.51.51,0,0,0,.853-.046l.262-.348a.549.549,0,0,0-.043-.829c-.742-.7-1.682-1.444-2.8-2.316a.538.538,0,0,0-.831.087l-.2.264A.522.522,0,0,0-89.387,329.527Z" transform="translate(600.025 -258.236)"/><path class="a" d="M-85.47,333.3l-.721-.305a.51.51,0,0,0-.766.327,28.565,28.565,0,0,1-2.707,5.614.537.537,0,0,0,.151.81l.613.392a.526.526,0,0,0,.81-.151,24.715,24.715,0,0,0,2.969-5.919A.546.546,0,0,0-85.47,333.3Z" transform="translate(599.821 -251.604)"/><path class="a" d="M-76.792,330.7a.562.562,0,0,0-.807-.221l-.591.307a.5.5,0,0,0-.219.807c.416.7.961,1.573,1.573,2.664-2.842.375-5.263.634-7.317.766,1-2.119,1.857-4.151,2.575-6.073a.492.492,0,0,0-.37-.742l-.85-.219a.565.565,0,0,0-.745.37,68.2,68.2,0,0,1-2.861,6.815c-.262.024-.589.046-.918.046a.539.539,0,0,0-.567.613v.041a.519.519,0,0,0,.61.567c3.387-.173,7.188-.521,11.053-1.091,0,0,.262.569.853,1.725a.566.566,0,0,0,.807.307l.7-.329a.52.52,0,0,0,.286-.786A60.755,60.755,0,0,0-76.792,330.7Z" transform="translate(602.48 -258.556)"/><path class="a" d="M-76.03,332.315H-86.8a.521.521,0,0,0-.591.589v7.884a.522.522,0,0,0,.591.591h.983a.522.522,0,0,0,.589-.591V333.47h7.579v5.614h-.562v0h-4.769a.5.5,0,0,0-.56.562.5.5,0,0,0,.56.56h5.331v.579a.522.522,0,0,0,.591.591h1.026a.522.522,0,0,0,.591-.591V332.9A.521.521,0,0,0-76.03,332.315Z" transform="translate(603.181 -252.457)"/><path class="a" d="M-69.858,330.85H-73.2a.522.522,0,0,0-.591.591v11.183a.522.522,0,0,0,.591.591h.961a.522.522,0,0,0,.591-.591V332.075h1.79a.522.522,0,0,0,.591-.591v-.043A.522.522,0,0,0-69.858,330.85Z" transform="translate(622.248 -254.511)"/><path class="a" d="M-65.442,328.755l-.046-.2a.505.505,0,0,0-.742-.37A26.852,26.852,0,0,1-73.2,329.63a.551.551,0,0,0-.569.61,70.252,70.252,0,0,1-.348,7.3c-.416,3.8-1.247,5.9-2.556,7.776a.557.557,0,0,0,.108.831l.48.394a.512.512,0,0,0,.831-.065,14.439,14.439,0,0,0,2.193-3.815,22.972,22.972,0,0,0,1.2-6.5q.054-.749.094-1.506c.055-1.057.084-2.121.084-3.178l.012-.776a28.24,28.24,0,0,0,5.854-1.2A.556.556,0,0,0-65.442,328.755Z" transform="translate(618.016 -258.314)"/><path class="a" d="M-79.43,329.648h8.293a.522.522,0,0,0,.591-.591.522.522,0,0,0-.591-.589H-79.43a.521.521,0,0,0-.589.589A.522.522,0,0,0-79.43,329.648Z" transform="translate(613.514 -257.851)"/><path class="a" d="M-71.627,337.069a.521.521,0,0,0,.589-.589V330.54a.52.52,0,0,0-.589-.589h-6.722a.52.52,0,0,0-.589.589v4.8a22.028,22.028,0,0,1-1.047,7.908.556.556,0,0,0,.262.764l.786.437a.51.51,0,0,0,.786-.24,14.843,14.843,0,0,0,1.059-3.676,25.083,25.083,0,0,0,.286-3.469c.024-1.052.01-2.109.01-3.164v-2.844h3.728v4.9h-1.489a.49.49,0,0,0-.553.555.489.489,0,0,0,.553.552h.995v0Z" transform="translate(613.48 -255.772)"/><path class="a" d="M-107.216,334.157h-31.54a1.411,1.411,0,0,0-1.413,1.41,1.412,1.412,0,0,0,1.413,1.413h31.54a1.411,1.411,0,0,0,1.41-1.413,1.411,1.411,0,0,0-1.41-1.41Z" transform="translate(529.168 -249.874)"/><path class="a" d="M-138.755,342.452h21.027a1.411,1.411,0,0,0,1.41-1.413,1.409,1.409,0,0,0-1.41-1.41l-10.515,0h-10.512a1.412,1.412,0,0,0-1.413,1.413,1.412,1.412,0,0,0,1.413,1.413Z" transform="translate(529.168 -242.203)"/><path class="a" d="M-121.25,331.51h10.512a1.411,1.411,0,0,0,1.413-1.41,1.412,1.412,0,0,0-1.413-1.412H-121.25a1.412,1.412,0,0,0-1.413,1.412,1.411,1.411,0,0,0,1.413,1.41" transform="translate(553.715 -257.544)"/><path class="a" d="M-110.738,334.157H-121.25a1.411,1.411,0,0,0-1.413,1.41,1.412,1.412,0,0,0,1.413,1.413h10.512a1.412,1.412,0,0,0,1.413-1.413,1.411,1.411,0,0,0-1.413-1.41" transform="translate(553.715 -249.874)"/><path class="a" d="M-125.626,342.452H-104.6a1.412,1.412,0,0,0,1.413-1.413,1.41,1.41,0,0,0-1.413-1.41l-10.512,0h-10.512a1.412,1.412,0,0,0-1.413,1.413,1.412,1.412,0,0,0,1.413,1.413Z" transform="translate(547.579 -242.203)"/><path class="a" d="M-130,331.51h10.512a1.411,1.411,0,0,0,1.41-1.41,1.411,1.411,0,0,0-1.41-1.412H-130a1.412,1.412,0,0,0-1.413,1.412A1.411,1.411,0,0,0-130,331.51" transform="translate(541.442 -257.544)"/><path class="a" d="M-98.465,323.216H-130a1.412,1.412,0,0,0-1.413,1.412A1.413,1.413,0,0,0-130,326.041h31.537a1.413,1.413,0,0,0,1.413-1.413,1.412,1.412,0,0,0-1.413-1.412Z" transform="translate(541.442 -265.216)"/><path class="a" d="M-138.755,331.51h10.512a1.413,1.413,0,0,0,1.413-1.41,1.413,1.413,0,0,0-1.413-1.412h-10.512a1.412,1.412,0,0,0-1.413,1.412,1.411,1.411,0,0,0,1.413,1.41" transform="translate(529.168 -257.544)"/><path class="a" d="M-128.243,323.216h-10.512a1.412,1.412,0,0,0-1.413,1.412,1.413,1.413,0,0,0,1.413,1.413h10.512a1.415,1.415,0,0,0,1.413-1.413,1.413,1.413,0,0,0-1.413-1.412" transform="translate(529.168 -265.216)"/><path class="a" d="M-109.234,338.79h.809v1.957h2.4V338.79h.8v4.72h-.8v-2.064h-2.4v2.064h-.809Z" transform="translate(572.546 -242.376)"/><path class="a" d="M-105.3,343.351a2.452,2.452,0,0,1-.963-.894,2.325,2.325,0,0,1-.351-1.244,2.313,2.313,0,0,1,.351-1.244,2.524,2.524,0,0,1,.963-.894,2.857,2.857,0,0,1,1.365-.329,2.827,2.827,0,0,1,1.362.329,2.559,2.559,0,0,1,.963.894,2.294,2.294,0,0,1,.353,1.244,2.3,2.3,0,0,1-.351,1.244,2.452,2.452,0,0,1-.963.894,2.842,2.842,0,0,1-1.365.327A2.856,2.856,0,0,1-105.3,343.351Zm2.3-.6a1.714,1.714,0,0,0,.673-.622,1.737,1.737,0,0,0,.245-.913,1.724,1.724,0,0,0-.245-.913,1.721,1.721,0,0,0-.673-.625,1.988,1.988,0,0,0-.939-.226,2,2,0,0,0-.939.226,1.738,1.738,0,0,0-.673.625,1.684,1.684,0,0,0-.25.913,1.7,1.7,0,0,0,.25.913,1.731,1.731,0,0,0,.673.622,2,2,0,0,0,.939.223A1.985,1.985,0,0,0-102.993,342.748Z" transform="translate(576.225 -242.438)"/><path class="a" d="M-102.5,343.381a1.711,1.711,0,0,1-.689-.675,2.018,2.018,0,0,1-.245-1.009V338.79h.8v2.948a1.2,1.2,0,0,0,.3.846,1.1,1.1,0,0,0,.855.327,1.1,1.1,0,0,0,.853-.322,1.209,1.209,0,0,0,.3-.85V338.79h.81V341.7a2.046,2.046,0,0,1-.24,1,1.673,1.673,0,0,1-.677.677,2.134,2.134,0,0,1-1.04.24A2.156,2.156,0,0,1-102.5,343.381Z" transform="translate(580.68 -242.377)"/><path class="a" d="M-100.2,343.337a1.75,1.75,0,0,1-.709-.966l.764-.281a1.313,1.313,0,0,0,.408.637,1.06,1.06,0,0,0,.7.245,1.122,1.122,0,0,0,.651-.18l.267-.5-.235-.478a2.748,2.748,0,0,0-.817-.38l-.327-.106a2.413,2.413,0,0,1-.874-.476,1.031,1.031,0,0,1-.353-.814,1.1,1.1,0,0,1,.209-.649,1.478,1.478,0,0,1,.581-.471,1.978,1.978,0,0,1,.841-.175,1.762,1.762,0,0,1,1.083.3,1.483,1.483,0,0,1,.541.677l-.728.283-.3-.4a.924.924,0,0,0-.577-.171,1.019,1.019,0,0,0-.6.163l-.243.423.216.4a2.446,2.446,0,0,0,.68.305l.324.1a2.612,2.612,0,0,1,1.026.55,1.173,1.173,0,0,1,.368.906,1.16,1.16,0,0,1-.262.774,1.564,1.564,0,0,1-.658.466,2.341,2.341,0,0,1-.829.151A2.039,2.039,0,0,1-100.2,343.337Z" transform="translate(584.227 -242.438)"/><path class="a" d="M-98.416,338.79h3.141v.7h-2.332V340.8h2.1v.7h-2.1v1.3h2.332v.706h-3.141Z" transform="translate(587.717 -242.376)"/><path class="a" d="M-93.628,339.494h-1.443v-.7h3.695v.7h-1.443v4.016h-.809Z" transform="translate(592.407 -242.376)"/><path class="a" d="M-92.607,338.79h.809v1.957h2.4V338.79h.8v4.72h-.8v-2.064h-2.4v2.064h-.809Z" transform="translate(595.862 -242.376)"/><path class="a" d="M-89.846,338.79H-86.7v.7h-2.332V340.8h2.1v.7h-2.1v1.3H-86.7v.706h-3.141Z" transform="translate(599.735 -242.376)"/><path class="a" d="M-87.519,338.79H-85.7a1.92,1.92,0,0,1,.843.185,1.471,1.471,0,0,1,.6.514,1.293,1.293,0,0,1,.221.745,1.226,1.226,0,0,1-.336.846,1.672,1.672,0,0,1-.841.495l-.007.031,1.415,1.867v.038h-.939l-1.362-1.845h-.608v1.845h-.807Zm1.8,2.188a.929.929,0,0,0,.613-.209.678.678,0,0,0,.252-.543l-.1-.353-.288-.284-.449-.108h-1.016v1.5Z" transform="translate(602.997 -242.377)"/><path class="a" d="M-83.338,338.79h.922l1.943,4.72h-.9l-.464-1.206h-2.085l-.468,1.206h-.9Zm1.235,2.828-.55-1.4-.2-.548H-82.9l-.2.548-.548,1.4Z" transform="translate(606.135 -242.377)"/><path class="a" d="M-82.387,338.79h1.792a1.932,1.932,0,0,1,.841.185,1.531,1.531,0,0,1,.613.514,1.264,1.264,0,0,1,.228.745,1.264,1.264,0,0,1-.228.745,1.513,1.513,0,0,1-.613.514,1.934,1.934,0,0,1-.841.187h-.983v1.831h-.81Zm1.8,2.188.464-.108.3-.281.1-.356-.1-.356-.3-.279-.464-.106h-.995v1.485Z" transform="translate(610.194 -242.377)"/><rect class="a" width="0.809" height="4.72" transform="translate(533.546 96.414)"/><path class="a" d="M-78.017,343.337a1.746,1.746,0,0,1-.706-.966l.764-.281a1.313,1.313,0,0,0,.408.637,1.06,1.06,0,0,0,.7.245,1.114,1.114,0,0,0,.649-.18l.269-.5-.235-.478a2.768,2.768,0,0,0-.819-.38l-.327-.106a2.382,2.382,0,0,1-.872-.476,1.031,1.031,0,0,1-.353-.814,1.1,1.1,0,0,1,.209-.649,1.445,1.445,0,0,1,.581-.471,1.967,1.967,0,0,1,.838-.175,1.774,1.774,0,0,1,1.086.3,1.484,1.484,0,0,1,.541.677l-.73.283-.3-.4a.914.914,0,0,0-.577-.171,1.029,1.029,0,0,0-.6.163l-.243.423.216.4a2.515,2.515,0,0,0,.68.305l.324.1a2.641,2.641,0,0,1,1.028.55,1.172,1.172,0,0,1,.365.906,1.172,1.172,0,0,1-.259.774,1.557,1.557,0,0,1-.661.466,2.328,2.328,0,0,1-.826.151A2.047,2.047,0,0,1-78.017,343.337Z" transform="translate(615.332 -242.438)"/><path class="a" d="M-74.987,339.494h-1.444v-.7h3.7v.7h-1.443v4.016h-.809Z" transform="translate(618.546 -242.376)"/><path class="a" d="M-73.441,343.337a1.75,1.75,0,0,1-.709-.966l.764-.281a1.313,1.313,0,0,0,.408.637,1.06,1.06,0,0,0,.7.245,1.121,1.121,0,0,0,.651-.18l.267-.5-.235-.478a2.738,2.738,0,0,0-.819-.38l-.324-.106a2.413,2.413,0,0,1-.874-.476,1.031,1.031,0,0,1-.353-.814,1.1,1.1,0,0,1,.209-.649,1.461,1.461,0,0,1,.581-.471,1.978,1.978,0,0,1,.841-.175,1.762,1.762,0,0,1,1.083.3,1.483,1.483,0,0,1,.541.677l-.728.283-.3-.4a.926.926,0,0,0-.579-.171,1.029,1.029,0,0,0-.6.163l-.24.423.216.4a2.459,2.459,0,0,0,.677.305l.327.1a2.613,2.613,0,0,1,1.026.55,1.173,1.173,0,0,1,.368.906,1.16,1.16,0,0,1-.262.774,1.557,1.557,0,0,1-.661.466,2.318,2.318,0,0,1-.826.151A2.039,2.039,0,0,1-73.441,343.337Z" transform="translate(621.744 -242.438)"/></g></svg>