<?xml version="1.0" encoding="utf-8"?>
<!-- Generator: Adobe Illustrator 24.0.0, SVG Export Plug-In . SVG Version: 6.00 Build 0)  -->
<svg version="1.1" id="圖層_1" xmlns="http://www.w3.org/2000/svg" xmlns:xlink="http://www.w3.org/1999/xlink" x="0px" y="0px"
	 viewBox="0 0 77.96 21.24" style="enable-background:new 0 0 77.96 21.24;" xml:space="preserve">
<style type="text/css">
	.st0{fill-rule:evenodd;clip-rule:evenodd;fill:#FFFFFF;}
</style>
<g>
	<g>
		<polygon class="st0" points="0,0 0,20.84 6.46,20.84 6.46,13.89 13.97,20.84 23.1,20.84 12.36,10.74 23.1,0 13.97,0 6.46,7.75 
			6.46,0 		"/>
		<path class="st0" d="M26,0.16v5.01c6.03,0,12.06,0,18.09,0c1.39,0.97,1.52,1.89,0,2.75H26c0,4.41,0,8.83,0,13.24
			c2.23,0,4.47,0,6.7,0v-8.08h5.94c1.53,2.69,2.46,5.38,4,8.08c2.77,0,5.55,0,8.32,0L47,13.12c4.02-0.31,5.48-10.1,0.4-12.96H26z"/>
		<path class="st0" d="M55.97,0.24c-1.54-0.21-2.39,0.58-2.75,2.1l-0.16,8.4c0.35,1.82,1.43,2.6,3.07,2.58
			c5.02-0.01,10.05-0.01,15.07-0.02c1.12,0.96,0.93,1.84,0,2.67l-17.25,0.02l-1.29,5.25h22.47c4.6-2.63,2.86-11.68,0-13
			c-5.31,0-10.62,0-15.93,0c-0.99-0.82-1.27-1.71,0-2.75h17.29c1.41-1.41,1.68-3.19,1.05-5.25H55.97z"/>
	</g>
</g>
</svg>
