<svg xmlns="http://www.w3.org/2000/svg" width="222.032" height="50.254" viewBox="0 0 222.032 50.254"><defs><style>.a,.b,.c{fill:#fff;}.b{fill-rule:evenodd;}.c{font-size:16px;font-family:DFMing-W7-WINP-BF, DFPMingBold-B5;letter-spacing:0.05em;}</style></defs><g transform="translate(-445.968 -3284.836)"><g transform="translate(445.968 3288.874)"><g transform="translate(16.676)"><path class="a" d="M201.833-86.875s-.017.032-.056.091a10.775,10.775,0,0,1-3.751,3.357C195.144-81.574,189.74-77.56,187.065-72c-.876,1.543-3.191,3.757-1.389,6.02s2.006,2.831,3.189,3.191,2.009-.1,2.574-1.6.745-4.27.281-4.786-1.569-.9-2.211.952c.618-.333,1.466-.46,1.544.773s-.1,3.894-1.081,4.185a2.5,2.5,0,0,1-2.263-1.3c-.955-1.184-3.153-1.98-1.34-5.71,1.082-1.6,5.252-7.231,9.212-8.955,2.188-.721,5.214-1.4,6.234-7.61" transform="translate(-184.742 87.142)"/><path class="a" d="M189.657-62.326a2.813,2.813,0,0,1-.789-.127c-1.025-.313-1.4-.8-2.4-2.1-.255-.331-.553-.718-.917-1.177-1.579-1.987-.23-3.951.758-5.383.23-.334.447-.648.608-.933,2.676-5.56,8.071-9.6,11.046-11.518a10.473,10.473,0,0,0,3.673-3.275l.052-.082a.263.263,0,0,1,.363-.1.264.264,0,0,1,.1.353c-1,6.03-3.942,6.977-6.088,7.668l-.315.1c-4.315,1.88-8.881,8.568-9.075,8.852-1.368,2.818-.334,3.783.664,4.716a7.064,7.064,0,0,1,.661.677,2.251,2.251,0,0,0,2.04,1.205c.631-.194.925-2.405.832-3.9-.019-.256-.08-.585-.288-.7a1.008,1.008,0,0,0-.867.145.261.261,0,0,1-.3-.032.264.264,0,0,1-.078-.289c.389-1.122.945-1.451,1.343-1.532a1.434,1.434,0,0,1,1.318.491c.614.68.3,3.651-.23,5.058C191.293-62.95,190.6-62.326,189.657-62.326Zm-3.2-3.121.434.566c1,1.3,1.276,1.656,2.137,1.917a1.726,1.726,0,0,0,1.043.042,2.833,2.833,0,0,1-2.495-1.407,6.567,6.567,0,0,0-.6-.612C186.8-65.1,186.623-65.265,186.453-65.447Zm3.9-3.185a.989.989,0,0,1,.485.117,1.278,1.278,0,0,1,.56,1.133c.054.861,0,3.1-.729,4.056a3.4,3.4,0,0,0,.6-1.074c.6-1.58.661-4.146.333-4.512a.919.919,0,0,0-.816-.324,1.141,1.141,0,0,0-.7.629A1.46,1.46,0,0,1,190.355-68.633Zm-4.587-.6a2.729,2.729,0,0,0,.164,3.124A3.467,3.467,0,0,1,185.767-69.236Zm15.643-16.432a12.017,12.017,0,0,1-3.174,2.557c-2.855,1.835-8,5.681-10.68,10.962,1.741-2.247,4.91-5.9,8-7.244l.343-.114C197.883-80.147,200.321-80.933,201.411-85.668Z" transform="translate(-184.824 87.06)"/></g><g transform="translate(22.919 7)"><path class="a" d="M193.853-81.46s-1.925,3.178-2.645,9.866c-.978,7.257-2.47,12.713-1.647,13.638.411.258,9.16-1.8,12.4-3.755-3.914,1.029-11.427,2.831-11.427,2.831s2.391-17.994,4.026-22.814l-.525-.344Z" transform="translate(-189.057 82.305)"/><path class="a" d="M189.793-57.586h0a.527.527,0,0,1-.291-.062.318.318,0,0,1-.058-.048c-.593-.667-.263-2.735.48-6.975.353-2.026.755-4.321,1.1-6.875.721-6.664,2.6-9.838,2.683-9.969l.161-.522a.264.264,0,0,1,.164-.169.271.271,0,0,1,.236.027l.527.344a.267.267,0,0,1,.107.307c-1.477,4.353-3.606,19.74-3.962,22.38,1.573-.379,7.676-1.852,11.039-2.738a.266.266,0,0,1,.314.153.272.272,0,0,1-.107.333C199.071-59.525,191.075-57.586,189.793-57.586Zm4.475-23.957-.08.247c-.043.087-1.929,3.275-2.632,9.813-.349,2.572-.752,4.872-1.107,6.9-.544,3.11-1.016,5.812-.654,6.46a48.133,48.133,0,0,0,9.474-2.527c-3.865.972-8.526,2.091-8.584,2.106a.269.269,0,0,1-.242-.061.267.267,0,0,1-.085-.233c.1-.726,2.35-17.62,3.972-22.669Z" transform="translate(-189.139 82.223)"/></g><g transform="translate(0 22.301)"><path class="a" d="M173.485-62.118a3.93,3.93,0,0,1,2.11-1.44c1.081-.1,3.962.1,4.838-3.243,1.132-3.087.828-4.942,8.131-4.632a39.038,39.038,0,0,1,7.2,1.867c-2.6-.527-8.644-2.328-10.445-1.454a3.414,3.414,0,0,0-2.161,2.676c-.517,1.7-.618,3.344-5.146,4.787,2.985.1,15.487.923,18.394-.517-4.088,1.546-5.169,1.8-10.625,1.648S175.7-62.939,173.485-62.118Z" transform="translate(-173.219 71.731)"/><path class="a" d="M173.567-61.769a.264.264,0,0,1-.214-.109.265.265,0,0,1,0-.32,4.159,4.159,0,0,1,2.3-1.544c.111-.009.245-.016.391-.026,1.3-.074,3.477-.2,4.217-3.019.13-.36.234-.683.336-.988.838-2.535,1.336-4.129,8.063-3.841a39.091,39.091,0,0,1,7.282,1.88.269.269,0,0,1,.166.324.266.266,0,0,1-.31.188c-.561-.113-1.279-.287-2.082-.476a35.348,35.348,0,0,0-6.878-1.207,3.175,3.175,0,0,0-1.317.208c-1.017.463-1.514.839-2.022,2.514-.041.136-.081.273-.12.41-.4,1.394-.8,2.828-3.912,4.091.09.006.181.009.275.013,2.174.1,5.461.253,8.632.253a31.066,31.066,0,0,0,7.39-.586l.634-.237a.264.264,0,0,1,.339.143.264.264,0,0,1-.126.344,4.088,4.088,0,0,1-.679.256c-3.664,1.363-4.923,1.563-10.072,1.42-.962-.027-1.9-.061-2.8-.094-1.7-.061-3.312-.119-4.718-.119a14.45,14.45,0,0,0-4.681.505A.26.26,0,0,1,173.567-61.769Zm4.262-1.718a7.971,7.971,0,0,1-1.758.252c-.139.007-.262.014-.368.026a2.515,2.515,0,0,0-1.275.663,20.732,20.732,0,0,1,3.913-.275c1.415,0,3.029.058,4.738.119.9.032,1.835.065,2.794.093a24.247,24.247,0,0,0,6.858-.408c-1.213.091-2.668.135-4.359.135-3.184,0-6.477-.153-8.657-.255-.679-.032-1.236-.058-1.629-.071a.264.264,0,0,1-.253-.23A.178.178,0,0,1,177.829-63.487Zm7.079-7.508c-2.807.365-3.2,1.535-3.807,3.388-.1.311-.211.638-.337.98a4.3,4.3,0,0,1-1.547,2.47c2.91-1.166,3.271-2.431,3.648-3.764.039-.139.081-.278.122-.42A3.673,3.673,0,0,1,184.908-70.995Z" transform="translate(-173.301 71.649)"/></g><g transform="translate(18.782 23.611)"><path class="a" d="M191.023-63.067a65.74,65.74,0,0,0-3.132,9.95,31.8,31.8,0,0,1-1.427,4.629c1-1.08,1.119-1.042,1.464-2.392.657-1.2.812-1.428,1.816-1.89s2.227-.388,3.023-2.627a19.431,19.431,0,0,0,1.106-5.6c.579,1.2,1.158,2.433,2.663,1.119,2.279-1.737,4.515-3.163,6.485-5.632s3.127-4.237,4.323-5.053a4.863,4.863,0,0,0-3.7,2.7,24.4,24.4,0,0,1-3.938,5.017c-2.082,2.161-3.589,3.32-4.282,2.894-.695-.5-1.66-1.735-1.314-2.315s.347-.6,1.082-.8,1.813-.716,1.311.544c.887-.592,1.04-1.363.405-1.363a4.062,4.062,0,0,0-2.6.819c-.54.648-.631.392-.631,1.7s-.1,4.916-2.009,6.354c-1.748,1.236-3.061,2.059-3.626,3.269,1.055-3.886,2.907-10.729,3.346-11.5C191.12-63.371,191.023-63.067,191.023-63.067Z" transform="translate(-186.197 70.826)"/><path class="a" d="M186.548-48.139a.264.264,0,0,1-.139-.038.266.266,0,0,1-.113-.318l.194-.52a31.046,31.046,0,0,0,1.226-4.087,66.808,66.808,0,0,1,3.146-9.992.529.529,0,0,1,.479-.365.552.552,0,0,1,.239.058.266.266,0,0,1,.136.162.257.257,0,0,1-.023.208c-.372.657-1.912,6.262-2.942,10.056a17.184,17.184,0,0,1,2.308-1.8l.533-.375c1.218-.923,1.894-3.1,1.894-6.137,0-1.065.058-1.2.421-1.576a3.945,3.945,0,0,0,.271-.3,4.382,4.382,0,0,1,2.81-.915.606.606,0,0,1,.628.405c.129.425-.226,1.007-.886,1.446a.265.265,0,0,1-.314-.013.268.268,0,0,1-.081-.307.912.912,0,0,0,.106-.453c-.007,0-.027,0-.061,0a3.035,3.035,0,0,0-.712.168c-.113.036-.223.071-.327.1-.616.169-.616.169-.9.648-.234.392.524,1.493,1.22,2a.384.384,0,0,0,.177.036c.643,0,1.9-.975,3.76-2.9a24.021,24.021,0,0,0,3.9-4.964,5.1,5.1,0,0,1,3.875-2.826.27.27,0,0,1,.305.153.265.265,0,0,1-.1.327,15.554,15.554,0,0,0-2.874,3.214c-.418.544-.876,1.14-1.388,1.784a25.877,25.877,0,0,1-5.285,4.748c-.412.305-.829.614-1.247.932a2.066,2.066,0,0,1-1.3.618,1.6,1.6,0,0,1-1.314-.97,21.139,21.139,0,0,1-1.061,4.706,3.511,3.511,0,0,1-2.564,2.551,6.373,6.373,0,0,0-.6.226c-.917.423-1.042.592-1.679,1.748a3.469,3.469,0,0,1-1.149,2.084l-.369.392A.265.265,0,0,1,186.548-48.139Zm1.318-3.433c-.256.942-.434,1.512-.589,1.964a3.5,3.5,0,0,0,.476-1.256.3.3,0,0,1,.028-.062c.1-.178.184-.334.263-.478l-.019,0A.262.262,0,0,1,187.866-51.571Zm4.741-3.849a3.688,3.688,0,0,1-.7.706l-.543.379a18.112,18.112,0,0,0-2.172,1.673c.149-.087.321-.174.527-.268a6.438,6.438,0,0,1,.648-.246A3,3,0,0,0,192.6-55.4Zm1.8-5.169c.352.689.719,1.223,1.275,1.064a.806.806,0,0,1-.323-.114A4.752,4.752,0,0,1,194.41-60.59Zm11.914-9.279a4.223,4.223,0,0,0-2.365,2.211,22.805,22.805,0,0,1-3.564,4.629,18.3,18.3,0,0,0,2.5-2.563c.512-.641.968-1.234,1.385-1.776A31.587,31.587,0,0,1,206.324-69.869Zm-9.8,6.353a.516.516,0,0,1,.36.22.461.461,0,0,1,.072.161.793.793,0,0,0,.149-.3c.012-.051,0-.075,0-.078s-.038-.023-.116-.023C196.838-63.538,196.682-63.53,196.521-63.516Z" transform="translate(-186.28 70.743)"/></g></g><g transform="translate(536.762 3293.203)"><path class="b" d="M239.773-59.523V-61.1c.514-.632,1.008-1.282,1.548-1.893a2.769,2.769,0,0,0,.59-2.243c-.132-1.286-.262-2.569-.424-3.851-.156-1.229-.357-2.451-.525-3.678a5.331,5.331,0,0,1-.008-.776c.062-.006.123-.017.182-.023a8.336,8.336,0,0,0,.563,1.242c.126.195.442.262.675.387a3.085,3.085,0,0,0,.254-.636,4.844,4.844,0,0,0,.013-.812l.193-.056a14.906,14.906,0,0,1,1.077,1.74c.85,1.918,1.639,3.862,2.448,5.8.25.6.493,1.207.708,1.819.173.484.267.991.44,1.473.367,1.047.81,2.065,1.13,3.124.387,1.274.681,2.574,1.011,3.865.093.017.184.035.276.054a64.868,64.868,0,0,0,6.521-7.426c-.68-.108-1.149-.21-1.62-.25a4.812,4.812,0,0,1-3.346-1.395c-.173-.186-.415-.3-.593-.488a3.084,3.084,0,0,1-.93-2.3c.877.193,1.665.41,2.462.536a13.569,13.569,0,0,0,1.949.13c.283,0,.571-.171.849-.153,1.44.091,2.084-.431,2.014-1.827-.088-1.907-.261-3.81-.424-5.712-.054-.667-.389-.794-1.037-.536-1.426.564-2.835,1.244-4.447,1-.279-.04-.575.01-.86-.006a3.054,3.054,0,0,1-2.966-1.844.615.615,0,0,0-.342-.309c-1.31-.375-1.851-1.552-2.654-2.57a3.937,3.937,0,0,1,1.142-.143,12.657,12.657,0,0,0,3.94-.519,33.771,33.771,0,0,1,4.268-.781,12.108,12.108,0,0,1,2.737-.31,7.735,7.735,0,0,0,1.946-.461c.9-.221,1.8-.458,2.705-.646a23.664,23.664,0,0,0,3.825-.772,14.376,14.376,0,0,1,3.9-.83,14.572,14.572,0,0,0,2.176-.551h.715c.538.1,1.083.167,1.614.293a8.731,8.731,0,0,1,4.379,2.517,20.083,20.083,0,0,1,1.88,2.529,2.9,2.9,0,0,1,.685,1.322,11.91,11.91,0,0,1-.973,5.836,1.716,1.716,0,0,0-.138.394c-.435,1.728-.55,3.557-1.552,5.119a1.506,1.506,0,0,0-.166.6,20,20,0,0,1-.293,2.291,67.3,67.3,0,0,1-2.806,8.927,10.283,10.283,0,0,1-2.328,3.154,6.865,6.865,0,0,1-3.708,1.923,1.1,1.1,0,0,1-1.354-.459c-.525-.907-1.124-1.775-1.681-2.665a1.283,1.283,0,0,0-1.492-.677,3.444,3.444,0,0,1-2.4-.241,2.467,2.467,0,0,0-1.117-.2c-.65.034-1.29.239-1.934.253a3.606,3.606,0,0,0-2.282.764,3.874,3.874,0,0,1-3.053.981,1.9,1.9,0,0,0-.545.106,5.085,5.085,0,0,1-4.463-.833A5.446,5.446,0,0,0,244.8-53.2a4.549,4.549,0,0,1-4.187-3.711A18.993,18.993,0,0,0,239.773-59.523Zm24.253,2.23c0-.029,0-.057.005-.087a13.6,13.6,0,0,0,1.325.746c.725.314,1.5.519,2.213.852.538.253.811.074.96-.409.223-.729.4-1.478.611-2.209.685-2.335,1.38-4.667,2.067-7,.267-.913.551-1.823.771-2.749.355-1.492.729-2.988.981-4.5.263-1.565.957-3.055.762-4.7-.179-1.487-.134-2.689-2.343-3.332a7.545,7.545,0,0,0-5.034.269,24.553,24.553,0,0,1-2.471.952,6.714,6.714,0,0,0-3.045,1.5c-.638.619-.742.807-.234,1.5a2.378,2.378,0,0,0,.71.694,1.841,1.841,0,0,1,.941,1.836,37.331,37.331,0,0,1-.3,3.945c-.122.821-.07,1.227.877,1.02.07-.014.158.1.245.115.727.152,1.452.291,2.176.445a6.665,6.665,0,0,1,1.074.265c.983.4.885,1.417,1.142,2.2.066.2-.35.579-.583.846a1.8,1.8,0,0,1-.487.27c-1.125.615-2.247,1.238-3.376,1.841a1.682,1.682,0,0,1-.777.284.862.862,0,0,0-.973.812c-.214,1.164-.437,2.329-.562,3.5-.086.816.571,1.223,1.38,1.011a4.233,4.233,0,0,1,1.164-.079A4.433,4.433,0,0,1,264.026-57.293Zm-13.379,2.134a3.1,3.1,0,0,0,.738.209c.564-.019,1.126-.121,1.691-.128a10.942,10.942,0,0,0,3.516-.859.663.663,0,0,0,.357-.44,13.934,13.934,0,0,0,.287-1.793c.093-1-.453-1.343-1.354-.894a3.15,3.15,0,0,0-.471.3C253.866-57.6,252.329-56.431,250.648-55.159Z" transform="translate(-239.773 83.723)"/></g><g transform="translate(497.431 3284.836)"><path class="b" d="M213.289-88.269a.885.885,0,0,1,.292.38,5.966,5.966,0,0,0,1.473,1.722c1.486,1.3,3.24,1.412,5.033,1.473.69.023,1.389-.077,2.082-.122a11.108,11.108,0,0,0,1.993-.157,20.636,20.636,0,0,0,2.382-.939,7.162,7.162,0,0,0-.666-1.517,15.763,15.763,0,0,0-1.641-1.716,1.325,1.325,0,0,0-.554-.2c-.4-.11-.808-.211-1.213-.317l-.138-.021c-.785.119-1.569.3-2.355.346-1.354.086-2.715.117-4.072.125a4.929,4.929,0,0,1-1.514-.214,13.712,13.712,0,0,1-1.609-.745C212.56-89.427,212.447-88.725,213.289-88.269Z" transform="translate(-208.516 90.172)"/><path class="b" d="M248.6-46.788c-.067.014-.174-.186-.276-.267a.958.958,0,0,0-.365-.253c-1.04-.2-2.086-.366-3.128-.563a49.766,49.766,0,0,1-4.965-1.008,22.134,22.134,0,0,1-4.538-1.868,58,58,0,0,1-4.861-3.3,21.822,21.822,0,0,0-4.287-2.7c-.18-.074-.314-.267-.528-.461a7.1,7.1,0,0,1,.82-.448c1.223-.444,2.462-.845,3.677-1.318.406-.161,1-.437,1.061-.755a6.2,6.2,0,0,0-.115-1.95c-.008-.075-.21-.149-.333-.18a13.987,13.987,0,0,0-1.783-.383,5.819,5.819,0,0,0-1.7.065,6.035,6.035,0,0,0-1.249.581,5.882,5.882,0,0,0-.848.375c-.948.644-1.892,1.3-2.81,1.986-.823.619-2.028.8-2.343,2.014-.007.022-.175-.021-.236.019-.588.344-1.164.7-1.745,1.056.039.1.077.209.114.31.658-.066,1.312-.136,2.193-.227l-3.6,4.444a7.677,7.677,0,0,1-.141-.99q.056-3.316.139-6.631a4.318,4.318,0,0,1,.149-.728,2.109,2.109,0,0,0,.092-.453c-.025-.915-.108-1.829-.079-2.74.009-.266.31-.741.489-.746a38.94,38.94,0,0,1,4.351.066,14.011,14.011,0,0,0,4.2.176c.876-.186,1.122-.637,1-1.537a3.969,3.969,0,0,1,.3-1.408c.083-.32.231-.628.3-.952.127-.616.192-1.248.327-1.864.141-.636.361-1.253.5-1.888.292-1.287.506-2.593.85-3.866a19.945,19.945,0,0,1,1.027-2.861,15.727,15.727,0,0,1,1.325-2.429,1,1,0,0,0,.153-1.12,4.676,4.676,0,0,0-2.819-2.161,13.537,13.537,0,0,1-1.979-.848,1.287,1.287,0,0,0-1.571.042,4.908,4.908,0,0,1-1.178.651c-.586.221-1.2.357-1.8.531-.884.25-1.759.553-2.653.745s-1.823.217-2.7.424a4.182,4.182,0,0,1-2.091.263c-.472-.125-.959-.187-1.618-.3a8.061,8.061,0,0,0,.717,2.254,6.612,6.612,0,0,0,3.131,2.569,9.3,9.3,0,0,0,5.01-.036c.8-.176,1.594-.358,2.59-.583-.184,1.655-.349,3.1-.518,4.6a7.232,7.232,0,0,0-1.478-.457c-1.457-.09-2.652.777-3.971,1.195-.554.176-1.089.4-1.646.56-.1.03-.361-.157-.379-.274a7.927,7.927,0,0,1-.139-1.628,2.8,2.8,0,0,0-1.29-2.763c-.616-.379-1.405-.494-1.989-.907a1.489,1.489,0,0,0-2.267.372c.262.173.532.335.789.512a4.157,4.157,0,0,1,2.112,3.138c.075,1.068.2,2.132.272,3.2.1,1.457.188,2.917.269,4.375.023.42-.13.691-.636.663a2.838,2.838,0,0,0-.75.162c-.032.082-.062.163-.1.247a4.982,4.982,0,0,0,.782.545c.462.2.75.439.715,1.012q-.123,1.921-.145,3.849c-.021,2.042.009,4.085-.012,6.128-.01,1.166-.04,2.34-.156,3.5a2.433,2.433,0,0,1-.55,1.348c-.614.651-1.369,1.165-2.041,1.761-.441.391-.843.826-1.264,1.243v.025a3.448,3.448,0,0,0-.919,1.823c-.054.9,1.056,1.683,1.582,2.03a1,1,0,0,0,.584.278h2.215c.346-.134.69-.278,1.037-.4a3.591,3.591,0,0,0,1.845-1.95c.823-1.448,1.864-2.77,2.741-4.189.847-1.371,1.6-2.8,2.4-4.2a4.9,4.9,0,0,1,.429-.682c.457-.566.942-1.107,1.4-1.671a1.008,1.008,0,0,1,1.6-.173,13.934,13.934,0,0,1,1.293,1.288,53.385,53.385,0,0,0,5.894,5.319c.861.732,1.755,1.434,2.67,2.1a8.9,8.9,0,0,0,.934.4,8.969,8.969,0,0,0,1.519,1.185,10.325,10.325,0,0,0,2.718.992,20.316,20.316,0,0,0,2.979.052c.985.025,1.964.071,2.946.132a3.188,3.188,0,0,0,2.923-1.544c.171-.235.366-.45.551-.673v-.694C249.407-46.523,249.148-46.916,248.6-46.788ZM216.961-69.111c.009-.175.3-.494.444-.483,1.7.163,3.181-.588,4.71-1.129.489-.171.977-.348,1.466-.516s.666.131.625.512c-.1.941-.254,1.877-.4,2.813a.614.614,0,0,1-.887.49,4.13,4.13,0,0,0-2.5.335c-.98.258-1.934.6-2.9.889a3.521,3.521,0,0,1-.58.051C216.94-67.192,216.918-68.15,216.961-69.111Z" transform="translate(-209.457 91.756)"/></g><text class="c" transform="translate(584 3323)"><tspan x="0" y="0">殯儀企業社</tspan></text></g></svg>